<?xml version="1.0" encoding="UTF-8"?>
<svg width="64px" height="64px" viewBox="0 0 48 48" xmlns="http://www.w3.org/2000/svg">
<path d="m35.547 42.431-3.182-3.182-2.121 2.121 3.182 3.182c0.586 0.586 1.536 0.586 2.121 0s0.586-1.535 0-2.121zm3-18-3.182-3.182-2.121 2.121 3.182 3.182c0.586 0.586 1.536 0.586 2.121 0s0.586-1.535 0-2.121zm-25.864 18 3.182-3.182 2.121 2.121-3.182 3.182c-0.586 0.586-1.536 0.586-2.121 0s-0.586-1.535 0-2.121zm-3.25-18 3.182-3.182 2.121 2.121-3.182 3.182c-0.586 0.586-1.536 0.586-2.121 0s-0.586-1.535 0-2.121z" fill="#ffcc80"/>
<path d="M38 8c0-1.933-1.149-3-3.231-3S31 7.567 31 9.5c0 1 1.923 1.5 3 1.5C36.082 11 38 9.933 38 8zM10 8c0-1.933 1.149-3 3.231-3S17 7.567 17 9.5c0 1-1.923 1.5-3 1.5C11.918 11 10 9.933 10 8z" fill="#4dd0e1"/>
<path d="m35 7a1 1 0 1 0 0 2 1 1 0 1 0 0-2zm-22 0a1 1 0 1 0 0 2 1 1 0 1 0 0-2z" fill="#424242"/>
<path d="m37 34c0 4.774-3.219 10-13.31 10-8.122 0-12.69-5.226-12.69-10 0-5 1-5.806 1-10v-10c0-4.774 3.076-11 11.69-11s12.31 3.991 12.31 10c0 3-0.237 5.453 0 10 0.186 3.562 1 8 1 11z" fill="#4dd0e1"/>
<path d="m29 6a4 4 0 1 0 0 8 4 4 0 1 0 0-8zm-10 0a4 4 0 1 0 0 8 4 4 0 1 0 0-8z" fill="#f5f5f5"/>
<path d="M24 20c0 .552.448 1 1 1s1-.448 1-1v-3h-2V20zM22 20c0 .552.448 1 1 1s1-.448 1-1v-3h-2V20z" fill="#eee"/>
<path d="m26.5 18c-0.412 0-0.653-0.085-1.011-0.205-0.975-0.328-2.021-0.326-2.996 2e-3 -0.355 0.119-0.583 0.203-0.993 0.203-1.334 0-1.5-1-1.5-1.5 0-1.5 1.5-2.5 3-2.5h2c1.5 0 3 1 3 2.5 0 0.5-0.166 1.5-1.5 1.5z" fill="#ffcc80"/>
<path d="m27 9a1 1 0 1 0 0 2 1 1 0 1 0 0-2zm-10 0a1 1 0 1 0 0 2 1 1 0 1 0 0-2zm7 4a2 1 0 1 0 0 2 2 1 0 1 0 0-2z" fill="#424242"/>
</svg>
