<?xml version="1.0" encoding="UTF-8"?>
<svg xmlns="http://www.w3.org/2000/svg" xmlns:xlink="http://www.w3.org/1999/xlink" viewBox="0 0 240 240" width="240px" height="240px">
<defs>
<linearGradient id="linear0" gradientUnits="userSpaceOnUse" x1="77.9543" y1="31.06123" x2="35.88372" y2="155.346909" gradientTransform="matrix(1.618605,0,0,1.618605,-19.2,-19.2)">
<stop offset="0" style="stop-color:rgb(6.666667%,29.019609%,54.509807%);stop-opacity:1;"/>
<stop offset="1" style="stop-color:rgb(2.352941%,41.176471%,73.725492%);stop-opacity:1;"/>
</linearGradient>
<linearGradient id="linear1" gradientUnits="userSpaceOnUse" x1="91.095047" y1="88.976852" x2="81.364059" y2="92.269043" gradientTransform="matrix(1.618605,0,0,1.618605,-19.2,-19.2)">
<stop offset="0" style="stop-color:rgb(0%,0%,0%);stop-opacity:0.3;"/>
<stop offset="0.071" style="stop-color:rgb(0%,0%,0%);stop-opacity:0.2;"/>
<stop offset="0.321" style="stop-color:rgb(0%,0%,0%);stop-opacity:0.1;"/>
<stop offset="0.623" style="stop-color:rgb(0%,0%,0%);stop-opacity:0.05;"/>
<stop offset="1" style="stop-color:rgb(0%,0%,0%);stop-opacity:0;"/>
</linearGradient>
<linearGradient id="linear2" gradientUnits="userSpaceOnUse" x1="86.044792" y1="27.321119" x2="132.225006" y2="150.358231" gradientTransform="matrix(1.618605,0,0,1.618605,-19.2,-19.2)">
<stop offset="0" style="stop-color:rgb(23.529412%,79.607844%,95.686275%);stop-opacity:1;"/>
<stop offset="1" style="stop-color:rgb(15.686275%,57.254905%,87.450981%);stop-opacity:1;"/>
</linearGradient>
</defs>
<g id="surface35810586">
<path style=" stroke:none;fill-rule:nonzero;fill:url(#linear0);" d="M 83.078125 15.601562 L 148.644531 15.601562 L 80.578125 217.285156 C 79.144531 221.535156 75.160156 224.394531 70.671875 224.394531 L 19.644531 224.394531 C 13.878906 224.394531 9.203125 219.71875 9.203125 213.953125 C 9.203125 212.816406 9.386719 211.691406 9.746094 210.613281 L 73.171875 22.714844 C 74.601562 18.464844 78.589844 15.601562 83.078125 15.601562 Z M 83.078125 15.601562 "/>
<path style=" stroke:none;fill-rule:nonzero;fill:rgb(0%,47.058824%,83.137256%);fill-opacity:1;" d="M 178.359375 150.878906 L 74.382812 150.878906 C 71.726562 150.875 69.570312 153.03125 69.5625 155.6875 C 69.5625 157.027344 70.113281 158.304688 71.09375 159.214844 L 137.910156 221.574219 C 139.851562 223.390625 142.417969 224.398438 145.078125 224.398438 L 203.953125 224.398438 Z M 178.359375 150.878906 "/>
<path style=" stroke:none;fill-rule:nonzero;fill:url(#linear1);" d="M 83.078125 15.601562 C 78.535156 15.582031 74.515625 18.523438 73.148438 22.851562 L 9.828125 210.449219 C 7.886719 215.867188 10.703125 221.84375 16.121094 223.785156 C 17.257812 224.191406 18.460938 224.398438 19.671875 224.398438 L 72.023438 224.398438 C 75.988281 223.691406 79.273438 220.902344 80.613281 217.097656 L 93.238281 179.886719 L 138.339844 221.953125 C 140.230469 223.519531 142.601562 224.382812 145.054688 224.398438 L 203.71875 224.398438 L 177.988281 150.878906 L 102.988281 150.898438 L 148.882812 15.601562 Z M 83.078125 15.601562 "/>
<path style=" stroke:none;fill-rule:nonzero;fill:url(#linear2);" d="M 166.828125 22.703125 C 165.398438 18.460938 161.417969 15.601562 156.933594 15.601562 L 83.855469 15.601562 C 88.332031 15.601562 92.316406 18.460938 93.742188 22.699219 L 157.167969 210.613281 C 159.011719 216.078125 156.074219 222 150.613281 223.84375 C 149.539062 224.214844 148.414062 224.398438 147.277344 224.398438 L 220.355469 224.398438 C 226.121094 224.398438 230.796875 219.726562 230.796875 213.953125 C 230.796875 212.816406 230.613281 211.691406 230.246094 210.621094 Z M 166.828125 22.703125 "/>
</g>
</svg>
