<?xml version="1.0" encoding="UTF-8"?>
<svg xmlns="http://www.w3.org/2000/svg" xmlns:xlink="http://www.w3.org/1999/xlink" viewBox="0 0 240 240" width="240px" height="240px">
<g id="surface35757528">
<path style=" stroke:none;fill-rule:nonzero;fill:rgb(1.176471%,66.274512%,95.686275%);fill-opacity:1;" d="M 204 99 C 206.050781 89.890625 203.515625 79.15625 190.875 67.5 C 170.328125 86.101562 176.203125 105.441406 183 114.75 C 183 114.75 182.128906 120 162 120 C 141.871094 120 4.5 120 4.5 120 C 4.5 120 -5.125 204 88.5 204 C 170.363281 204 193.359375 140.984375 197.847656 124.851562 C 199.707031 125.101562 201.789062 125.265625 204 125.25 C 215.273438 125.160156 229.882812 119.101562 235.5 96.460938 C 220.601562 91.296875 211.03125 93.632812 204 99 Z M 204 99 "/>
<path style=" stroke:none;fill-rule:nonzero;fill:rgb(0.784314%,53.333336%,81.960785%);fill-opacity:1;" d="M 5.367188 141 C 9.226562 165.878906 25.410156 204 88.5 204 C 152.472656 204 180.496094 165.515625 191.832031 141 Z M 5.367188 141 "/>
<path style=" stroke:none;fill-rule:nonzero;fill:rgb(50.588238%,83.137256%,98.039216%);fill-opacity:1;" d="M 98.011719 203.675781 C 93.183594 201.984375 71.386719 197.953125 67.5 167.25 C 45.402344 177.03125 25.824219 174.46875 17.210938 172.542969 C 28.5625 189.496094 49.601562 204 88.5 204 C 91.769531 204 94.925781 203.875 98.011719 203.675781 Z M 98.011719 203.675781 "/>
<path style=" stroke:none;fill-rule:nonzero;fill:rgb(100%,100%,100%);fill-opacity:1;" d="M 88.5 151.5 C 82.699219 151.5 78 156.199219 78 162 C 78 167.800781 82.699219 172.5 88.5 172.5 C 94.300781 172.5 99 167.800781 99 162 C 99 156.199219 94.300781 151.5 88.5 151.5 Z M 88.5 151.5 "/>
<path style=" stroke:none;fill-rule:nonzero;fill:rgb(21.568628%,27.843139%,30.980393%);fill-opacity:1;" d="M 72.296875 170.382812 C 73.472656 173.035156 72.402344 176.484375 69.621094 177.304688 C 52.289062 182.410156 37.355469 183.089844 26.0625 183.089844 C 22.679688 179.839844 19.792969 176.375 17.367188 172.785156 C 30.9375 172.785156 52.59375 172.152344 65.375 167.710938 C 68.113281 166.757812 71.121094 167.722656 72.296875 170.382812 Z M 4.5 135.75 C 4.5 135.75 14.34375 136.40625 20.25 130.5 C 30.09375 139.363281 51.433594 136.210938 57 130.5 C 62.582031 139.363281 93.425781 137.71875 99 130.5 C 105.5625 138.050781 133.78125 139.6875 141 130.5 C 143.515625 138.171875 176.800781 140.339844 183 130.5 C 188.570312 136.210938 209.582031 140.675781 221.382812 130.5 C 224.34375 136.738281 235.5 135.75 235.5 135.75 L 235.5 141 L 4.5 141 M 83.25 162 C 83.25 164.898438 85.601562 167.25 88.5 167.25 C 91.398438 167.25 93.75 164.898438 93.75 162 C 93.75 159.101562 91.398438 156.75 88.5 156.75 C 85.601562 156.75 83.25 159.101562 83.25 162 Z M 83.25 162 "/>
<path style=" stroke:none;fill-rule:nonzero;fill:rgb(0.392157%,34.117648%,60.784316%);fill-opacity:1;" d="M 51.75 120 L 25.5 120 L 25.5 93.75 L 51.75 93.75 Z M 104.25 93.75 L 78 93.75 L 78 120 L 104.25 120 Z M 156.75 93.75 L 130.5 93.75 L 130.5 120 L 156.75 120 Z M 78 67.5 L 51.75 67.5 L 51.75 93.75 L 78 93.75 Z M 130.5 67.5 L 104.25 67.5 L 104.25 93.75 L 130.5 93.75 Z M 130.5 67.5 "/>
<path style=" stroke:none;fill-rule:nonzero;fill:rgb(0.784314%,53.333336%,81.960785%);fill-opacity:1;" d="M 78 120 L 51.75 120 L 51.75 93.75 L 78 93.75 Z M 130.5 93.75 L 104.25 93.75 L 104.25 120 L 130.5 120 Z M 130.5 41.25 L 104.25 41.25 L 104.25 67.5 L 130.5 67.5 Z M 104.25 67.5 L 78 67.5 L 78 93.75 L 104.25 93.75 Z M 104.25 67.5 "/>
</g>
</svg>
